<svg width="22" height="25" viewBox="0 0 22 25" fill="none" xmlns="http://www.w3.org/2000/svg">
<rect x="1" y="14.3333" width="20" height="9.16667" rx="2" stroke="#353535" stroke-width="2"/>
<rect x="8.5" y="8.5" width="5" height="5.83333" rx="1" stroke="#353535" stroke-width="2"/>
<path d="M1 20.1667C1.69444 19.3334 3.08333 17.6667 4.75 17.6667C6.83333 17.6667 7.66667 19.3334 11 19.3334C13.5 19.3334 14.75 17.6667 16.8333 17.6667C18.9167 17.6667 19.3333 19.3334 21 19.3334" stroke="#353535" stroke-width="2"/>
<path d="M12.6666 4.5C12.6666 5.32843 11.9204 6 10.9999 6C10.0794 6 9.33325 5.32843 9.33325 4.5C9.33325 3.67157 10.7221 1 10.9999 1C11.2777 1 12.6666 3.67157 12.6666 4.5Z" stroke="#353535" stroke-width="2"/>
</svg>
