<svg width="28" height="28" viewBox="0 0 28 28" fill="none" xmlns="http://www.w3.org/2000/svg">
<path d="M26.8834 8.88413C27.3716 8.39598 27.3716 7.60452 26.8834 7.11636C26.3952 6.62821 25.6038 6.62821 25.1156 7.11636L26.8834 8.88413ZM7.11627 25.1157C6.62811 25.6039 6.62811 26.3953 7.11627 26.8835C7.60442 27.3716 8.39588 27.3716 8.88403 26.8835L7.11627 25.1157ZM25.1156 7.11636C23.0887 9.14329 21.0206 8.94735 18.4628 8.5429C16.0221 8.15698 12.8379 7.4691 10.1285 10.104L11.8715 11.8962C13.5427 10.271 15.3583 10.5831 18.0723 11.0122C20.6691 11.4228 23.9105 11.857 26.8834 8.88413L25.1156 7.11636ZM10.1285 10.104C7.39932 12.7582 8.09884 15.9714 8.49857 18.4236C8.91995 21.0085 9.13644 23.0956 7.11627 25.1157L8.88403 26.8835C11.8637 23.9038 11.3898 20.6212 10.966 18.0214C10.5206 15.2888 10.2201 13.5022 11.8715 11.8962L10.1285 10.104Z" fill="#353535"/>
<path d="M1.1166 19.116C0.628446 19.6041 0.628446 20.3956 1.1166 20.8838C1.60476 21.3719 2.39621 21.3719 2.88437 20.8838L1.1166 19.116ZM20.8837 2.88439C21.3719 2.39624 21.3719 1.60478 20.8837 1.11663C20.3956 0.628472 19.6041 0.628472 19.116 1.11663L20.8837 2.88439ZM2.88437 20.8838C4.9113 18.8568 6.97935 19.0528 9.53722 19.4572C11.9779 19.8431 15.1621 20.531 17.8715 17.8961L16.1285 16.1039C14.4573 17.7291 12.6416 17.417 9.92767 16.9879C7.33089 16.5773 4.08949 16.1431 1.1166 19.116L2.88437 20.8838ZM17.8715 17.8961C20.6007 15.242 19.9012 12.0287 19.5014 9.57653C19.0801 6.9916 18.8636 4.90456 20.8837 2.88439L19.116 1.11663C16.1363 4.09628 16.6102 7.37892 17.034 9.97875C17.4794 12.7113 17.7799 14.4979 16.1285 16.1039L17.8715 17.8961Z" fill="#353535"/>
</svg>
