<svg width="28" height="21" viewBox="0 0 28 21" fill="none" xmlns="http://www.w3.org/2000/svg">
<circle cx="14" cy="10.4975" r="3.03571" stroke="#353535" stroke-width="2.5"/>
<path d="M19.4274 5.0155C20.8395 6.41361 21.7143 8.35343 21.7143 10.4976C21.7143 12.6401 20.8409 14.5785 19.4307 15.9764M8.57255 5.0155C7.16046 6.41361 6.28571 8.35343 6.28571 10.4976C6.28571 12.6401 7.15912 14.5785 8.56931 15.9764" stroke="#353535" stroke-width="2.5" stroke-linecap="round"/>
<path d="M22.4961 18.972C24.6613 16.8013 26 13.8058 26 10.4975C26 7.17808 24.6522 4.17342 22.474 2.00096M5.50392 18.972C3.33869 16.8013 2 13.8058 2 10.4975C2 7.17759 3.34821 4.17253 5.527 2" stroke="#353535" stroke-width="2.5" stroke-linecap="round"/>
</svg>
