<svg width="25" height="27" viewBox="0 0 25 27" fill="none" xmlns="http://www.w3.org/2000/svg">
<path d="M2 10.3782C2 9.76099 2.28495 9.17838 2.77212 8.79946L11.5721 1.95502C12.2943 1.39329 13.3057 1.39329 14.0279 1.95502L22.8279 8.79946C23.3151 9.17838 23.6 9.76099 23.6 10.3782V22.6C23.6 23.2365 23.3471 23.847 22.8971 24.2971C22.447 24.7471 21.8365 25 21.2 25H4.4C3.76348 25 3.15303 24.7471 2.70294 24.2971C2.25286 23.847 2 23.2365 2 22.6V10.3782Z" stroke="#353535" stroke-width="2.5" stroke-linecap="round" stroke-linejoin="round"/>
<path d="M9.2 25V15C9.2 13.8954 10.0954 13 11.2 13H14.4C15.5046 13 16.4 13.8954 16.4 15V25" stroke="#353535" stroke-width="2.5" stroke-linecap="round" stroke-linejoin="round"/>
</svg>
