<svg width="20" height="20" viewBox="0 0 20 20" fill="none" xmlns="http://www.w3.org/2000/svg">
<circle cx="7.5" cy="7.5" r="6.5" stroke="#353535" stroke-width="2"/>
<path d="M15.312 15.904C15.4933 15.76 15.576 15.6933 15.56 15.704C16.0827 15.272 16.4933 14.9173 16.792 14.64C17.096 14.3627 17.352 14.072 17.56 13.768C17.768 13.464 17.872 13.168 17.872 12.88C17.872 12.6613 17.8213 12.4907 17.72 12.368C17.6187 12.2453 17.4667 12.184 17.264 12.184C17.0613 12.184 16.9013 12.2613 16.784 12.416C16.672 12.5653 16.616 12.7787 16.616 13.056H15.296C15.3067 12.6027 15.4027 12.224 15.584 11.92C15.7707 11.616 16.0133 11.392 16.312 11.248C16.616 11.104 16.952 11.032 17.32 11.032C17.9547 11.032 18.432 11.1947 18.752 11.52C19.0773 11.8453 19.24 12.2693 19.24 12.792C19.24 13.3627 19.0453 13.8933 18.656 14.384C18.2667 14.8693 17.7707 15.344 17.168 15.808H19.328V16.92H15.312V15.904Z" fill="#353535"/>
</svg>
