<svg width="390" height="568" viewBox="0 0 390 568" fill="none" xmlns="http://www.w3.org/2000/svg">
<path d="M278.494 288C319.294 142.4 428.494 36 477.994 1L468.5 632L-62 623.5L-11.0059 450.5C31.9941 541.5 227.494 470 278.494 288Z" fill="#FF7DA9"/>
<path d="M477.994 1L478.494 1.00752L478.509 0.0236758L477.705 0.591745L477.994 1ZM278.494 288L278.976 288.135L278.976 288.135L278.494 288ZM-11.0059 450.5L-10.5538 450.286L-11.1144 449.1L-11.4855 450.359L-11.0059 450.5ZM468.5 632L468.492 632.5L468.992 632.508L469 632.008L468.5 632ZM-62 623.5L-62.4796 623.359L-62.6655 623.989L-62.008 624L-62 623.5ZM477.705 0.591745C428.143 35.6357 318.853 142.122 278.013 287.865L278.976 288.135C319.736 142.678 428.845 36.3643 478.283 1.40826L477.705 0.591745ZM278.013 287.865C252.553 378.723 191.027 441.985 130.527 471.175C100.275 485.771 70.3109 491.832 45.2613 488.598C20.2279 485.366 0.111177 472.856 -10.5538 450.286L-11.4579 450.714C-0.622896 473.644 19.8229 486.322 45.1332 489.59C70.4273 492.855 100.589 486.729 130.961 472.075C191.712 442.765 253.436 379.277 278.976 288.135L278.013 287.865ZM477.494 0.992478L468 631.992L469 632.008L478.494 1.00752L477.494 0.992478ZM468.508 631.5L-61.992 623L-62.008 624L468.492 632.5L468.508 631.5ZM-61.5204 623.641L-10.5263 450.641L-11.4855 450.359L-62.4796 623.359L-61.5204 623.641Z" fill="#FF7DA9"/>
</svg>
