<svg width="71" height="71" viewBox="0 0 71 71" fill="none" xmlns="http://www.w3.org/2000/svg">
<path fill-rule="evenodd" clip-rule="evenodd" d="M0.774968 1.02505C1.16351 0.636509 1.79346 0.636509 2.182 1.02505L69.3679 68.2109C69.7564 68.5995 69.7564 69.2294 69.3679 69.618C68.9794 70.0065 68.3494 70.0065 67.9609 69.618L0.774968 2.43209C0.386426 2.04354 0.386426 1.41359 0.774968 1.02505Z" fill="#353535"/>
<path fill-rule="evenodd" clip-rule="evenodd" d="M69.3679 1.02524C69.7564 1.41378 69.7564 2.04374 69.3679 2.43228L2.18197 69.6182C1.79342 70.0067 1.16347 70.0067 0.774932 69.6182C0.38639 69.2296 0.38639 68.5997 0.774932 68.2111L67.9608 1.02524C68.3494 0.636701 68.9793 0.636701 69.3679 1.02524Z" fill="#353535"/>
</svg>
