<svg width="27" height="27" viewBox="0 0 27 27" fill="none" xmlns="http://www.w3.org/2000/svg">
<path d="M24.0915 17.9773C23.3599 19.7078 22.2157 21.2328 20.7588 22.4188C19.3018 23.6048 17.5766 24.4158 15.734 24.7809C13.8913 25.1459 11.9874 25.0539 10.1885 24.5129C8.38959 23.9718 6.75059 22.9983 5.41477 21.6773C4.07895 20.3563 3.08698 18.7281 2.52558 16.935C1.96419 15.142 1.85046 13.2387 2.19435 11.3915C2.53823 9.54436 3.32926 7.80958 4.49827 6.33884C5.66728 4.86811 7.17868 3.7062 8.90033 2.95471" stroke="#353535" stroke-width="2.5" stroke-linecap="round" stroke-linejoin="round"/>
<path d="M25 13.5027C25 11.9922 24.7025 10.4964 24.1246 9.10081C23.5467 7.70524 22.6996 6.43719 21.6318 5.36907C20.5639 4.30094 19.2962 3.45366 17.901 2.87559C16.5058 2.29753 15.0104 2 13.5002 2V13.5027H25Z" stroke="#353535" stroke-width="2.5" stroke-linecap="round" stroke-linejoin="round"/>
</svg>
