<svg width="18" height="22" viewBox="0 0 18 22" fill="none" xmlns="http://www.w3.org/2000/svg">
<path d="M9.00024 9C11.2094 9 13.0002 7.20914 13.0002 5C13.0002 2.79086 11.2094 1 9.00024 1C6.79111 1 5.00024 2.79086 5.00024 5C5.00024 7.20914 6.79111 9 9.00024 9Z" stroke="#353535" stroke-width="2" stroke-linecap="round" stroke-linejoin="round"/>
<path d="M16 20.4829C16 21.0352 16.4477 21.4829 17 21.4829C17.5523 21.4829 18 21.0352 18 20.4829H16ZM0 20.4829C0 21.0352 0.447715 21.4829 1 21.4829C1.55228 21.4829 2 21.0352 2 20.4829H0ZM9 13.4829C12.866 13.4829 16 16.6169 16 20.4829H18C18 15.5123 13.9706 11.4829 9 11.4829V13.4829ZM9 11.4829C4.02944 11.4829 0 15.5123 0 20.4829H2C2 16.6169 5.13401 13.4829 9 13.4829V11.4829Z" fill="#353535"/>
</svg>
