<svg width="24" height="23" viewBox="0 0 24 23" fill="none" xmlns="http://www.w3.org/2000/svg">
<path d="M5 6H3C1.89543 6 1 6.89543 1 8V20C1 21.1046 1.89543 22 3 22H21C22.1046 22 23 21.1046 23 20V8C23 6.89543 22.1046 6 21 6H19" stroke="#353535" stroke-width="2"/>
<path d="M19.4148 4.04806L18.4533 3.77334L19.4148 4.04806ZM17.9086 1.60261L18.0765 0.616809L17.9086 1.60261ZM18.1287 8.54944L17.1672 8.27472L18.1287 8.54944ZM5.87127 8.54944L4.90975 8.82416L5.87127 8.54944ZM6.09144 1.60261L5.92352 0.616809L6.09144 1.60261ZM3.62364 4.32279L4.90975 8.82416L6.83279 8.27472L5.54669 3.77334L3.62364 4.32279ZM7.79432 11H16.2057V9H7.79432V11ZM19.0903 8.82416L20.3764 4.32278L18.4533 3.77334L17.1672 8.27472L19.0903 8.82416ZM18.0765 0.616809C16.4254 0.335582 14.0376 0 12 0V2C13.863 2 16.1154 2.31158 17.7406 2.58841L18.0765 0.616809ZM12 0C9.9624 0 7.57455 0.335582 5.92352 0.616809L6.25936 2.58841C7.88457 2.31158 10.137 2 12 2V0ZM20.3764 4.32278C20.8496 2.66641 19.8276 0.915079 18.0765 0.616809L17.7406 2.58841C18.2649 2.67771 18.6142 3.21041 18.4533 3.77334L20.3764 4.32278ZM16.2057 11C17.5451 11 18.7223 10.1121 19.0903 8.82416L17.1672 8.27472C17.0446 8.70402 16.6522 9 16.2057 9V11ZM4.90975 8.82416C5.27772 10.1121 6.45488 11 7.79432 11V9C7.34784 9 6.95545 8.70402 6.83279 8.27472L4.90975 8.82416ZM5.54669 3.77334C5.38585 3.21041 5.73509 2.67771 6.25936 2.58841L5.92352 0.616809C4.17245 0.915079 3.15039 2.66641 3.62364 4.32279L5.54669 3.77334Z" fill="#353535"/>
<path d="M15 5L12 10" stroke="#353535" stroke-width="2" stroke-linecap="round"/>
<path d="M16 17H8" stroke="#353535" stroke-width="2" stroke-linecap="round"/>
</svg>
